<svg width="24" height="24" viewBox="0 0 24 24" fill="none" xmlns="http://www.w3.org/2000/svg">
<path d="M12 20.25C13.6317 20.25 15.2267 19.7662 16.5835 18.8596C17.9402 17.9531 18.9976 16.6646 19.622 15.1571C20.2464 13.6497 20.4098 11.9909 20.0915 10.3905C19.7732 8.79017 18.9874 7.32016 17.8336 6.16637C16.6798 5.01259 15.2098 4.22685 13.6095 3.90853C12.0092 3.5902 10.3504 3.75357 8.84286 4.378C7.33537 5.00242 6.0469 6.05984 5.14038 7.41655C4.23385 8.77325 3.75 10.3683 3.75 12C3.75 13.364 4.08 14.6501 4.66667 15.7831L3.75 20.25L8.21692 19.3333C9.34992 19.92 10.6369 20.25 12 20.25Z" stroke="black" stroke-width="2" stroke-linecap="round" stroke-linejoin="round"/>
</svg>
