<svg width="24" height="24" viewBox="0 0 24 24" fill="none" xmlns="http://www.w3.org/2000/svg">
<g clip-path="url(#clip0_4_20)">
<path d="M11.29 20.6599C11.49 20.8599 11.74 20.9499 12 20.9499C12.26 20.9499 12.51 20.8499 12.71 20.6599L20.21 13.1599C22.56 10.8099 22.56 7.10995 20.21 4.74995C17.91 2.46995 14.36 2.39995 12 4.54995C9.64 2.39995 6.09 2.45995 3.79 4.74995C1.44 7.10995 1.44 10.8099 3.79 13.1599L11.29 20.6599ZM5.21 6.15995C6 5.37995 7 4.98995 8.01 4.98995C9.02 4.98995 10.02 5.37995 10.8 6.15995L11.3 6.65995C11.69 7.04995 12.32 7.04995 12.71 6.65995L13.21 6.15995C14.77 4.59995 17.23 4.59995 18.8 6.15995C20.36 7.72995 20.36 10.1799 18.8 11.7399L12.01 18.5299L5.22 11.7399C4.84931 11.376 4.55486 10.9418 4.35386 10.4628C4.15286 9.98373 4.04934 9.46944 4.04934 8.94995C4.04934 8.43045 4.15286 7.91616 4.35386 7.43712C4.55486 6.95809 4.84931 6.52391 5.22 6.15995H5.21Z" fill="black"/>
</g>
<defs>
<clipPath id="clip0_4_20">
<rect width="24" height="24" fill="white"/>
</clipPath>
</defs>
</svg>
