<svg width="24" height="24" viewBox="0 0 24 24" fill="none" xmlns="http://www.w3.org/2000/svg">
<path d="M9.58334 14.4167L20.125 3.875M9.58334 14.4167L12.9375 21.125C12.9796 21.2168 13.0471 21.2945 13.132 21.349C13.2169 21.4035 13.3157 21.4325 13.4167 21.4325C13.5176 21.4325 13.6164 21.4035 13.7013 21.349C13.7863 21.2945 13.8538 21.2168 13.8958 21.125L20.125 3.875M9.58334 14.4167L2.87501 11.0625C2.78325 11.0205 2.7055 10.9529 2.65099 10.868C2.59648 10.7831 2.5675 10.6843 2.5675 10.5833C2.5675 10.4824 2.59648 10.3836 2.65099 10.2987C2.7055 10.2137 2.78325 10.1462 2.87501 10.1042L20.125 3.875" stroke="black" stroke-width="2" stroke-linecap="round" stroke-linejoin="round"/>
</svg>
