<svg width="24" height="24" viewBox="0 0 24 24" fill="none" xmlns="http://www.w3.org/2000/svg">
<path d="M4.875 4.5C3.97989 4.5 3.12145 4.85558 2.48851 5.48851C1.85558 6.12145 1.5 6.97989 1.5 7.875V16.125C1.5 17.0201 1.85558 17.8785 2.48851 18.5115C3.12145 19.1444 3.97989 19.5 4.875 19.5H13.125C14.0201 19.5 14.8785 19.1444 15.5115 18.5115C16.1444 17.8785 16.5 17.0201 16.5 16.125V15.7598L19.851 18.0728C20.97 18.8453 22.497 18.045 22.497 16.6845V7.3155C22.497 5.955 20.97 5.154 19.851 5.9265L16.5 8.24025V7.875C16.5 6.97989 16.1444 6.12145 15.5115 5.48851C14.8785 4.85558 14.0201 4.5 13.125 4.5H4.875ZM16.5 10.0635L20.703 7.161C20.7312 7.14157 20.7641 7.13021 20.7982 7.12816C20.8324 7.1261 20.8664 7.13343 20.8967 7.14934C20.927 7.16525 20.9524 7.18915 20.97 7.21844C20.9877 7.24773 20.997 7.28129 20.997 7.3155V16.6845C20.997 16.7187 20.9877 16.7523 20.97 16.7816C20.9524 16.8109 20.927 16.8347 20.8967 16.8507C20.8664 16.8666 20.8324 16.8739 20.7982 16.8718C20.7641 16.8698 20.7312 16.8584 20.703 16.839L16.5 13.9365V10.0635ZM3 7.875C3 7.37772 3.19754 6.90081 3.54917 6.54917C3.90081 6.19754 4.37772 6 4.875 6H13.125C13.6223 6 14.0992 6.19754 14.4508 6.54917C14.8025 6.90081 15 7.37772 15 7.875V16.125C15 16.3712 14.9515 16.615 14.8573 16.8425C14.763 17.07 14.6249 17.2767 14.4508 17.4508C14.2767 17.6249 14.07 17.763 13.8425 17.8573C13.615 17.9515 13.3712 18 13.125 18H4.875C4.62877 18 4.38495 17.9515 4.15747 17.8573C3.92998 17.763 3.72328 17.6249 3.54917 17.4508C3.37506 17.2767 3.23695 17.07 3.14273 16.8425C3.0485 16.615 3 16.3712 3 16.125V7.875Z" fill="#9F9F9F"/>
</svg>
