<svg width="60" height="60" viewBox="0 0 60 60" fill="none" xmlns="http://www.w3.org/2000/svg">
<path d="M48.7125 50.385L33.0575 34.73C31.8075 35.795 30.37 36.6192 28.745 37.2025C27.12 37.7858 25.4867 38.0775 23.845 38.0775C19.8484 38.0775 16.4617 36.6892 13.685 33.9125C10.9084 31.1342 9.52002 27.7467 9.52002 23.75C9.52002 19.7533 10.9084 16.3667 13.685 13.59C16.4617 10.8133 19.8484 9.42415 23.845 9.42249C27.8417 9.42082 31.2292 10.81 34.0075 13.59C36.7859 16.37 38.1742 19.7567 38.1725 23.75C38.1725 25.4867 37.865 27.1675 37.25 28.7925C36.635 30.4175 35.8267 31.8075 34.825 32.9625L50.48 48.615L48.7125 50.385ZM23.8475 35.575C27.1642 35.575 29.9642 34.4333 32.2475 32.15C34.5309 29.8667 35.6725 27.0658 35.6725 23.7475C35.6725 20.4292 34.5309 17.6292 32.2475 15.3475C29.9642 13.0658 27.1642 11.9242 23.8475 11.9225C20.5309 11.9208 17.73 13.0625 15.445 15.3475C13.16 17.6325 12.0184 20.4325 12.02 23.7475C12.0217 27.0625 13.1634 29.8625 15.445 32.1475C17.7267 34.4325 20.5267 35.5742 23.845 35.5725" fill="black"/>
</svg>
